<svg id="Layer_1" data-name="Layer 1" xmlns="http://www.w3.org/2000/svg" viewBox="0 0 36 36"><path d="M10.06934,26.583a1.06693,1.06693,0,0,1-.76123-.31641l-7.582-7.59668a.778.778,0,0,1,0-1.0957l.979-.98047.00683.00781.35938-.36328L9.29248,9.748a1.079,1.079,0,0,1,1.5542,1.49707L5.40869,16.919H34.5v2.1621H5.18555l5.646,5.65723a1.08057,1.08057,0,0,1-.7622,1.84473Z"/><path d="M10.06952,9.91675a.58017.58017,0,0,1,.57788.58117.5792.5792,0,0,1-.162.40235L5.8587,15.72742l-1.6217,1.692H34v1.16138H3.98053l1.703,1.70642,4.79413,4.80365a.581.581,0,0,1-.40808.99243.5714.5714,0,0,1-.40753-.16968L2.08014,18.31665a.2753.2753,0,0,1,0-.38837l.62524-.62652.02014.02014.70679-.73743L9.6532,10.0943a.572.572,0,0,1,.41632-.17755m0-1A1.57233,1.57233,0,0,0,8.93158,9.402L2.71039,15.89252l-.00568-.00568-1.3324,1.335a1.27546,1.27546,0,0,0,0,1.80121L8.95422,26.62a1.57928,1.57928,0,0,0,2.23127-2.2356L6.39136,19.58075H34.59387A.40652.40652,0,0,0,35,19.17383V16.82629a.40625.40625,0,0,0-.40613-.40692H6.58063l4.62671-4.82715a1.58075,1.58075,0,0,0-1.13782-2.67547Z"/></svg>