<svg id="Layer_1" data-name="Layer 1" xmlns="http://www.w3.org/2000/svg" viewBox="0 0 36 36"><path d="M18,2A16,16,0,1,0,34,18,15.99992,15.99992,0,0,0,18,2Zm0,30.04389A14.04389,14.04389,0,1,1,32.04389,18,14.04386,14.04386,0,0,1,18,32.04389Z"/><path d="M22.66341,23.09691l-6.0236-4.17672A.325.325,0,0,1,16.5,18.65311V7.825a.325.325,0,0,1,.325-.325h1.35a.325.325,0,0,1,.325.325v9.78122a.325.325,0,0,0,.13982.26709l5.1626,3.57932a.325.325,0,0,1,.082.4521l-.76864,1.11012A.325.325,0,0,1,22.66341,23.09691Z"/></svg>