<svg id="Layer_1" data-name="Layer 1" xmlns="http://www.w3.org/2000/svg" viewBox="0 0 36 36"><path d="M32.74805,34.5a.22241.22241,0,0,1-.15723-.06543L18,19.84473,3.40918,34.43457a.2228.2228,0,0,1-.31641-.001L1.56543,32.90625a.22339.22339,0,0,1,0-.31543L16.15527,18,1.56543,3.40918a.22369.22369,0,0,1,.001-.31641L3.09375,1.56543a.22279.22279,0,0,1,.31543,0L18,16.15527,32.59082,1.56543a.2228.2228,0,0,1,.31641.001l1.52734,1.52734a.22339.22339,0,0,1,0,.31543L19.84473,18,34.43457,32.59082a.22369.22369,0,0,1-.001.31641l-1.52734,1.52734A.22289.22289,0,0,1,32.74805,34.5Z"/><path d="M32.74811,2.11481l1.13708,1.13708-14.041,14.041L19.13715,18l.70709.70709,14.041,14.041-1.13708,1.13714-14.041-14.041L18,19.13715l-.70709.70709-14.041,14.041L2.11481,32.74811l14.041-14.041L16.86285,18l-.70709-.70709L2.11481,3.25189,3.25189,2.11481l14.041,14.041L18,16.86285l.70709-.70709,14.041-14.04095m0-1.11481a.72076.72076,0,0,0-.51129.21185L18,15.44867,3.76318,1.21185a.72284.72284,0,0,0-1.02252,0L1.21185,2.7406a.72291.72291,0,0,0,0,1.02258L15.44867,18,1.21185,32.23682a.72283.72283,0,0,0,0,1.02252l1.52881,1.52881a.723.723,0,0,0,1.02252,0L18,20.55133,32.23682,34.78815a.723.723,0,0,0,1.02252,0l1.52881-1.52881a.72283.72283,0,0,0,0-1.02252L20.55133,18,34.78815,3.76318a.72291.72291,0,0,0,0-1.02258L33.25934,1.21185A.72064.72064,0,0,0,32.74811,1Z"/></svg>