<svg id="Layer_1" data-name="Layer 1" xmlns="http://www.w3.org/2000/svg" viewBox="0 0 36 36"><path d="M25.9,19.88a7.6861,7.6861,0,0,0-2.63-2.24c-.64-.33-1.43-.67-2.35-1.03V8.4c.28.07.56.14.83.22a13.28967,13.28967,0,0,1,3.23,1.54l1.6-2.51A13.96548,13.96548,0,0,0,22.6,5.78a12.82763,12.82763,0,0,0-1.68-.36V1.03H19.24V5.24c-.31-.02-.63-.03-.95-.03a12.83174,12.83174,0,0,0-1.53.09V1.03H15.08V5.65a8.8649,8.8649,0,0,0-.87.29,6.95172,6.95172,0,0,0-3.06,2.18,5.65047,5.65047,0,0,0-1.16,3.6,5.776,5.776,0,0,0,.91,3.35,6.9229,6.9229,0,0,0,2.4,2.15c.51.28,1.1.57,1.78.86v9.41c-.32-.08-.64-.16-.96-.26a10.64866,10.64866,0,0,1-3.45-1.77L9,27.97a12.85906,12.85906,0,0,0,3.96,2.07,12.88186,12.88186,0,0,0,2.12.52v4.41h1.68V30.75c.36.03.73.04,1.11.04.47,0,.93-.02,1.37-.05v4.23h1.68V30.5a10.74635,10.74635,0,0,0,1.82-.53,6.87286,6.87286,0,0,0,3.16-2.4,6.66942,6.66942,0,0,0,1.1-3.9A6.17372,6.17372,0,0,0,25.9,19.88Zm-10.82-5.7A3.53969,3.53969,0,0,1,14,13.17a2.92553,2.92553,0,0,1-.43-1.6A2.8378,2.8378,0,0,1,14.9,8.98c.06-.04.12-.07.18-.11Zm4.16,13.55a11.5831,11.5831,0,0,1-1.49.09c-.32,0-.65-.02-.99-.05V18.73l.42.15.65.22c.51.18.98.36,1.41.52Zm0-11.74c-.01,0-.03-.01-.04-.01l-.65-.23c-.68-.24-1.27-.47-1.79-.69V8.27A7.80056,7.80056,0,0,1,18.25,8.14c.34,0,.67.00995.99.04Zm2.68,10.84a4.68769,4.68769,0,0,1-1,.51V20.37c.09.04.16.08.24.12a4.59641,4.59641,0,0,1,1.67,1.39,3.36,3.36,0,0,1,.52,1.94A3.41688,3.41688,0,0,1,21.92,26.83Z"/></svg>