<svg id="Layer_1" data-name="Layer 1" xmlns="http://www.w3.org/2000/svg" viewBox="0 0 36 36"><defs><style>.cls-1{fill:#3e58cc;}</style></defs><path class="cls-1" d="M33.6706,8.29106,18.21336,1.69854a.58907.58907,0,0,0-.42672,0L2.3294,8.29106a.5387.5387,0,0,0,.21337,1.03472l8.15945,0a.38848.38848,0,0,1,.34258.567,10.1431,10.1431,0,0,0-1.0028,4.42543,9.48162,9.48162,0,0,0,3.77655,7.743.40369.40369,0,0,0,.07449.04159,4.6159,4.6159,0,0,1,1.04682.62419,6.84685,6.84685,0,0,0,6.14372-.01042,4.64811,4.64811,0,0,1,.96329-.554A9.46,9.46,0,0,0,25.958,14.31823a10.14305,10.14305,0,0,0-1.0028-4.42542.38848.38848,0,0,1,.34258-.567l2.78907,0a.38867.38867,0,0,1,.38867.38866v9.30814h1.29079V9.71444a.38866.38866,0,0,1,.38867-.38866h3.30225A.5387.5387,0,0,0,33.6706,8.29106ZM18,21.6575c-3.41362,0-6.16586-3.2963-6.16586-7.33927a7.89907,7.89907,0,0,1,1.55377-4.84014.3997.3997,0,0,1,.31648-.15233h8.59122a.3997.3997,0,0,1,.31648.15233,7.89907,7.89907,0,0,1,1.55377,4.84014C24.16586,18.3612,21.41362,21.6575,18,21.6575ZM9.17891,7.54432a.126.126,0,0,1-.04922-.242l8.65695-3.67295a.49819.49819,0,0,1,.42672,0l8.65695,3.673a.126.126,0,0,1-.04922.242Z"/><path class="cls-1" d="M32.25338,34.34146H3.74662a.69783.69783,0,0,1-.69782-.69783V28.84935A6.54115,6.54115,0,0,1,9.59,22.3082h2.6499a2.84046,2.84046,0,0,1,2.02339.84694h0l3.7128,4.82539,3.52669-4.56775a2.84047,2.84047,0,0,1,2.24832-1.10458h2.64858a6.55157,6.55157,0,0,1,6.55157,6.55157v4.78386A.69783.69783,0,0,1,32.25338,34.34146ZM5.88013,32.20795H30.11987a.69782.69782,0,0,0,.69783-.69782V28.85977a4.41807,4.41807,0,0,0-4.41807-4.41807H24.83741A2.84049,2.84049,0,0,0,22.5862,25.55l-2.87044,3.7306a2.22892,2.22892,0,0,1-3.43048.00105L13.39823,25.5454a2.84047,2.84047,0,0,0-2.24764-1.1037H9.59A4.40765,4.40765,0,0,0,5.1823,28.84935v2.66078A.69782.69782,0,0,0,5.88013,32.20795Z"/></svg>