<!-- Uploaded to: SVG Repo, www.svgrepo.com, Transformed by: SVG Repo Mixer Tools -->
<svg width="800px" height="800px" viewBox="0 0 24 24" xmlns="http://www.w3.org/2000/svg">
<defs>
<style>.cls-1,.cls-2{fill:none;stroke:#000000;stroke-linecap:round;stroke-linejoin:round;stroke-width:1.5px;}.cls-2{fill-rule:evenodd;}</style>
</defs>
<g id="ic-folder-favorite">
<path class="cls-1" d="M8,20.3H4a2,2,0,0,1-2-2V7.3H20a2,2,0,0,1,2,2"/>
<path class="cls-1" d="M2,11.1v-6a1,1,0,0,1,.91-1h8.86a.89.89,0,0,1,.64.29L14,7.3"/>
<path class="cls-2" d="M15.93,11.67a.6.6,0,0,1,1.14,0l1,3.15H21.4a.6.6,0,0,1,.35,1.08l-2.68,2,1,3.14a.6.6,0,0,1-.92.67L16.5,19.72l-2.68,1.94A.6.6,0,0,1,12.9,21l1-3.14-2.68-2a.6.6,0,0,1,.35-1.08h3.31Z"/>
</g>
</svg>