<?xml version="1.0" encoding="iso-8859-1"?>
<!-- Uploaded to: SVG Repo, www.svgrepo.com, Transformed by: SVG Repo Mixer Tools -->
<!DOCTYPE svg PUBLIC "-//W3C//DTD SVG 1.1//EN" "http://www.w3.org/Graphics/SVG/1.1/DTD/svg11.dtd">
<svg fill="#000000" version="1.1" id="Capa_1" xmlns="http://www.w3.org/2000/svg" xmlns:xlink="http://www.w3.org/1999/xlink" 
	 width="800px" height="800px" viewBox="0 0 46.188 46.188"
	 xml:space="preserve">
<g>
	<g>
		<path d="M34.396,45.297c-0.934,0-1.84-0.269-2.622-0.777l-8.696-5.651l-8.661,5.651c-1.643,1.067-3.869,1.009-5.452-0.142
			c-1.601-1.165-2.331-3.23-1.818-5.141l2.688-10.017l-8.052-6.49c-1.54-1.247-2.162-3.348-1.549-5.23
			c0.609-1.879,2.348-3.214,4.325-3.317l10.358-0.54l3.686-9.663c0.708-1.848,2.514-3.089,4.493-3.089
			c1.979,0,3.784,1.242,4.493,3.09l3.713,9.683l10.328,0.518c1.977,0.103,3.715,1.436,4.326,3.317
			c0.611,1.886-0.012,3.987-1.551,5.231l-8.061,6.522l2.697,9.984c0.516,1.908-0.216,3.976-1.817,5.14
			C36.396,44.979,35.419,45.297,34.396,45.297z M23.096,32.872c1.156,0,2.281,0.334,3.252,0.965l5.008,3.255
			c0.173,0.112,0.396,0.106,0.564-0.015c0.167-0.123,0.242-0.334,0.188-0.533l-1.548-5.77c-0.61-2.275,0.179-4.705,2.011-6.187
			l4.643-3.757c0.161-0.13,0.226-0.345,0.161-0.542c-0.063-0.196-0.241-0.333-0.448-0.344l-5.966-0.31
			c-2.353-0.123-4.419-1.624-5.262-3.823l-2.139-5.577c-0.074-0.193-0.259-0.32-0.466-0.32s-0.392,0.127-0.466,0.32l-2.139,5.577
			c-0.843,2.2-2.909,3.701-5.262,3.823l-5.965,0.31c-0.205,0.012-0.383,0.149-0.448,0.345c-0.063,0.197,0,0.412,0.161,0.542
			l4.643,3.757c1.832,1.48,2.621,3.91,2.011,6.186l-1.549,5.77c-0.053,0.199,0.021,0.412,0.189,0.533
			c0.167,0.121,0.392,0.127,0.564,0.015l5.009-3.255C20.812,33.206,21.938,32.872,23.096,32.872z"/>
	</g>
</g>
</svg>