<svg id="Layer_1" data-name="Layer 1" xmlns="http://www.w3.org/2000/svg" viewBox="0 0 36 36"><defs><style>.cls-1{fill:#3e58cc;}</style></defs><path class="cls-1" d="M32.84664,13.95238a2.05773,2.05773,0,0,0-.55042.08093v-.21048a2.31139,2.31139,0,0,0-2.31523-2.299,2.28318,2.28318,0,0,0-1.5058.56663,2.40947,2.40947,0,0,0-4.80852.22669V14.7619H12.33333V12.31713a2.40947,2.40947,0,0,0-4.80852-.22669,2.28318,2.28318,0,0,0-1.5058-.56663,2.31139,2.31139,0,0,0-2.31523,2.299v.21048a2.05773,2.05773,0,0,0-.55042-.08093A2.16277,2.16277,0,0,0,1,16.10574v3.77231a2.16623,2.16623,0,0,0,2.15336,2.16957,2.05773,2.05773,0,0,0,.55042-.08093V22.161A2.31478,2.31478,0,0,0,6.019,24.47619a2.28318,2.28318,0,0,0,1.5058-.56663,2.40947,2.40947,0,0,0,4.80852-.22669V21.2381H23.66667v2.44477a2.40947,2.40947,0,0,0,4.80852.22669,2.28318,2.28318,0,0,0,1.5058.56663A2.31478,2.31478,0,0,0,32.29622,22.161v-.19427a2.05773,2.05773,0,0,0,.55042.08093A2.16623,2.16623,0,0,0,35,19.87805V16.10574A2.16277,2.16277,0,0,0,32.84664,13.95238ZM3.70378,19.87805a.54243.54243,0,1,1-1.08473,0V16.10574a.54242.54242,0,0,1,1.08473,0ZM6.71529,22.161a.7014.7014,0,0,1-.69628.69618.691.691,0,0,1-.69618-.69618V13.82283a.68767.68767,0,0,1,.69618-.68.69826.69826,0,0,1,.69628.68Zm3.999,1.52191a.79332.79332,0,0,1-1.58664,0V12.31713a.79332.79332,0,0,1,1.58664,0Zm12.14285-4.06382H13.14286V16.381h9.71428Zm4.01521,4.06382a.79332.79332,0,0,1-1.58664,0V12.31713a.79332.79332,0,1,1,1.58664,0ZM30.67717,22.161a.691.691,0,0,1-.69618.69618.7014.7014,0,0,1-.69628-.69618V13.82283a.69826.69826,0,0,1,.69628-.68.68767.68767,0,0,1,.69618.68ZM33.381,19.87805a.54243.54243,0,1,1-1.08473,0V16.10574a.54242.54242,0,0,1,1.08473,0Z"/></svg>