<svg id="Layer_1" data-name="Layer 1" xmlns="http://www.w3.org/2000/svg" viewBox="0 0 36 36"><defs><style>.cls-1{fill:#3e58cc;}</style></defs><path class="cls-1" d="M32.38683,27.73837H12.67636V20.493a.06577.06577,0,0,0-.0052-.03116h9.058l.026-.831c.0052-.06235.01039-.12984.01039-.19737,0-.213-.00519-.42589-.026-.63886a10.12973,10.12973,0,0,0-5.94171-8.59053,9.95167,9.95167,0,0,0-4.00962-.89335,2.20058,2.20058,0,0,0-.30122,0,10.13223,10.13223,0,0,0-9.9773,10.12274c0,.06753.0052.135.0104.19737l.026.831h9.058a.06577.06577,0,0,0-.0052.03116v7.24535H1.79534a.54526.54526,0,0,0-.54534.54534v1.50622a.54527.54527,0,0,0,.54534.54534H32.38683a.54527.54527,0,0,0,.54534-.54534V28.28371A.54526.54526,0,0,0,32.38683,27.73837ZM20.1814,18.79463H18.11425a11.12866,11.12866,0,0,0-3.08509-7.22975A8.58307,8.58307,0,0,1,20.1814,18.79463Zm-17.098.10909A8.584,8.584,0,0,1,8.246,11.56488a11.139,11.139,0,0,0-3.09028,7.33884Zm3.63565-.10909a9.19812,9.19812,0,0,1,4.92372-7.73354,9.206,9.206,0,0,1,4.91331,7.73354Z"/><path class="cls-1" d="M34.20466,10.57287h-2.0204a2.90956,2.90956,0,0,0-.46745-1.10628L33.1451,8.0383a.52608.52608,0,0,0,.16621-.38954.5384.5384,0,0,0-.161-.38436.533.533,0,0,0-.38953-.161.4983.4983,0,0,0-.37394.161L30.94814,8.69789a2.8301,2.8301,0,0,0-1.10629-.46742V6.21007a.54534.54534,0,1,0-1.09068,0v2.0204a2.83006,2.83006,0,0,0-1.10628.46742l-1.4283-1.4283a.5533.5533,0,0,0-.77387-.00519.54146.54146,0,0,0-.161.38953.49821.49821,0,0,0,.161.374l1.4335,1.43869a2.90958,2.90958,0,0,0-.46746,1.10628H24.38837a.54535.54535,0,1,0,0,1.09069h2.02039a2.90958,2.90958,0,0,0,.46746,1.10628l-1.4283,1.4283a.52605.52605,0,0,0-.1662.38953.53842.53842,0,0,0,.161.38434.50666.50666,0,0,0,.38954.161.4982.4982,0,0,0,.37394-.161l1.43869-1.4335a2.83028,2.83028,0,0,0,1.10628.46746v2.02039a.54534.54534,0,1,0,1.09068,0V14.006a2.83032,2.83032,0,0,0,1.10629-.46746l1.42829,1.4283a.55328.55328,0,0,0,.77387.0052.54151.54151,0,0,0,.161-.38954.49821.49821,0,0,0-.161-.37394l-1.43349-1.43869a2.90956,2.90956,0,0,0,.46745-1.10628h2.0204a.54535.54535,0,0,0,0-1.09069Zm-4.90815,2.68519a2.13985,2.13985,0,1,1,2.13984-2.13984A2.14346,2.14346,0,0,1,29.29651,13.25806Z"/><path class="cls-1" d="M9.0459,9.24843c-.052.0156-.10389.04156-.15581.06232a2.20058,2.20058,0,0,1,.30122,0A.72342.72342,0,0,0,9.0459,9.24843Z"/></svg>