<svg id="Layer_1" data-name="Layer 1" xmlns="http://www.w3.org/2000/svg" viewBox="0 0 36 36"><path d="M27.81368,19.55273,23.59447,15.1034l.0018-.02337V11.0421a.57087.57087,0,1,0-1.13653,0v2.86484L18.41882,9.64549a.56639.56639,0,0,0-.83779,0L8.18647,19.55273a.71432.71432,0,0,0-.01827.94176.56678.56678,0,0,0,.85576.01977l2.09118-2.20533v7.56466a.6377.6377,0,0,0,.605.6661h4.65308a.63774.63774,0,0,0,.60527-.6661v-5.1367h2.04293v5.137a.63766.63766,0,0,0,.60527.6658h4.65308a.63794.63794,0,0,0,.60527-.6661V18.30923l2.09088,2.205a.56726.56726,0,0,0,.85576-.01977A.71431.71431,0,0,0,27.81368,19.55273ZM23.67447,25.2078H20.23163V19.921c0-.36766-.27057-.516-.605-.516H16.37349c-.3344,0-.60557.14832-.60557.516V25.2078H12.32568V17.03247l5.67425-5.98378,5.67454,5.98408Z"/></svg>