<svg id="Layer_1" data-name="Layer 1" xmlns="http://www.w3.org/2000/svg" viewBox="0 0 36 36"><path d="M34.68325,20.63963,27.5106,13.07577c.00051-.01375.00306-.02648.00306-.03973V6.17157a.97048.97048,0,1,0-1.9321,0V11.0418L18.712,3.79733a.96286.96286,0,0,0-1.42424,0L1.317,20.63963a1.21436,1.21436,0,0,0-.03108,1.601.96356.96356,0,0,0,1.4548.03362l3.555-3.74907V31.38511a1.0841,1.0841,0,0,0,1.02845,1.13236h7.91024a1.08416,1.08416,0,0,0,1.02895-1.13236V22.65272h3.473v8.7329a1.084,1.084,0,0,0,1.029,1.13185h7.91024a1.0845,1.0845,0,0,0,1.02895-1.13236V18.52569L33.259,22.27425a.96434.96434,0,0,0,1.4548-.03362A1.21435,1.21435,0,0,0,34.68325,20.63963Zm-7.03664,9.61362H21.79377V21.26567c0-.625-.46-.87716-1.02844-.87716h-5.5304c-.56847,0-1.02947.25214-1.02947.87716v8.98758H8.35365V16.35519L17.99987,6.18278,27.64661,16.3557Z"/></svg>