<svg id="Layer_1" data-name="Layer 1" xmlns="http://www.w3.org/2000/svg" viewBox="0 0 36 36"><defs><style>.cls-1{fill:#3e58cc;}</style></defs><path class="cls-1" d="M18.3246,34.20254h-.6492c-5.557,0-9.52884-6.739-10.97869-9.63694A6.64529,6.64529,0,0,1,6,21.60591v-11.3A1.294,1.294,0,0,1,6.84579,9.0954C12.97839,6.8253,16.263,3.90541,16.93,3.062c.06593-.08671.11226-.14552.1568-.196l.94083-1.06853.90816,1.09585c.05048.06.11047.1372.1764.22452.68476.85638,3.77663,3.591,9.67136,5.83781A1.91422,1.91422,0,0,1,30,10.75014L30,21.6065a6.62285,6.62285,0,0,1-.69018,2.94662c-1.66545,3.33329-5.20127,9.0121-10.16794,9.59656A6.04477,6.04477,0,0,1,18.3246,34.20254Zm-9.118-23.42045a1.24183,1.24183,0,0,0-.77377,1.13951v9.68431a4.19975,4.19975,0,0,0,.43952,1.871c.9735,1.9458,4.485,8.29282,8.803,8.29282h.6492a3.79572,3.79572,0,0,0,.50783-.03266c4.11137-.48408,7.393-6.45334,8.30114-8.27144a4.17518,4.17518,0,0,0,.43358-1.85909V11.52064a.63872.63872,0,0,0-.40259-.58664,30.29273,30.29273,0,0,1-9.16664-5.47183A29.907,29.907,0,0,1,9.20662,10.78209Zm19.103.5947.00594.00178ZM7.69278,11.3756l-.00535.00238Z"/><path class="cls-1" d="M19.22769,24.161h-2.475V20.50637H13.07905V17.99274h3.67362V14.31912h2.475v3.67362h3.69322v2.51363H19.22769Z"/></svg>