<svg id="Layer_1" data-name="Layer 1" xmlns="http://www.w3.org/2000/svg" viewBox="0 0 36 36"><path d="M25.54135,10.134V8.28316a5.80492,5.80492,0,0,0-5.80493-5.80493H16.1102a5.65154,5.65154,0,0,0-5.65155,5.65154V10.134a.38028.38028,0,0,1-.38027.38028H2.7498A1.7498,1.7498,0,0,0,1,12.26406V31.772a1.7498,1.7498,0,0,0,1.7498,1.7498H33.2502A1.7498,1.7498,0,0,0,35,31.772V12.26406a1.7498,1.7498,0,0,0-1.7498-1.7498H25.92162A.38028.38028,0,0,1,25.54135,10.134Zm-8.925-5.09936h2.76728A3.60131,3.60131,0,0,1,22.985,8.63594V10.2452a.38027.38027,0,0,1-.38027.38027H13.39531a.38027.38027,0,0,1-.38027-.38027V8.63594A3.60131,3.60131,0,0,1,16.61636,5.03462ZM30.69381,30.96538H5.30619a1.7498,1.7498,0,0,1-1.7498-1.7498V14.82045a1.7498,1.7498,0,0,1,1.7498-1.7498H30.69381a1.7498,1.7498,0,0,1,1.7498,1.7498V29.21558A1.7498,1.7498,0,0,1,30.69381,30.96538Z"/><path d="M18.30073,26.60989a4.60171,4.60171,0,1,1,4.29115-4.29115A4.60628,4.60628,0,0,1,18.30073,26.60989Zm.00461-7.38769a2.81244,2.81244,0,1,0,2.49048,2.49048A2.81534,2.81534,0,0,0,18.30534,19.2222Z"/></svg>