<!-- Uploaded to: SVG Repo, www.svgrepo.com, Transformed by: SVG Repo Mixer Tools -->
<svg fill="#000000" width="800px" height="800px" viewBox="0 -3 24 24" xmlns="http://www.w3.org/2000/svg">
  <defs>
    <style>
      .cls-1 {
        fill-rule: evenodd;
      }
    </style>
  </defs>
  <path id="letter" class="cls-1" d="M1378,117h-20a2,2,0,0,1-2-2V101a2,2,0,0,1,2-2h20a2,2,0,0,1,2,2v14A2,2,0,0,1,1378,117Zm-16.61-16,6.61,6.609,6.61-6.609h-13.22Zm16.61,0h-0.61l-8.6,8.6a0.619,0.619,0,0,1-.08.114,1.027,1.027,0,0,1-1.42,0,0.619,0.619,0,0,1-.08-0.114l-8.6-8.6H1358v14h20V101Z" transform="translate(-1356 -99)"/>
</svg>