<svg id="Layer_1" data-name="Layer 1" xmlns="http://www.w3.org/2000/svg" viewBox="0 0 36 36"><path d="M29.43,10.62A11.84726,11.84726,0,0,0,27.6,5.56a11.67,11.67,0,0,0-3.86-3.67A11.19207,11.19207,0,0,0,18.36.38q-.36-.015-.72,0a11.19207,11.19207,0,0,0-5.38,1.51A11.67,11.67,0,0,0,8.4,5.56a11.84726,11.84726,0,0,0-1.83,5.06,11.56648,11.56648,0,0,0,.77,5.6l1.73,4.29,7.19,14.06a1.95811,1.95811,0,0,0,3.48,0l7.21-14.1,1.71-4.25A11.56648,11.56648,0,0,0,29.43,10.62Zm-2.96,4.72-1.66,4.15L18,32.8,11.2,19.51,9.53,15.34a9.09269,9.09269,0,0,1,.84-8.49,8.9675,8.9675,0,0,1,7.34-4.12,5.604,5.604,0,0,1,.58,0,8.9675,8.9675,0,0,1,7.34,4.12A9.09269,9.09269,0,0,1,26.47,15.34Z"/><path d="M18.07,3.65a8.085,8.085,0,1,0,8.09,8.08A8.09172,8.09172,0,0,0,18.07,3.65Zm0,13.64a5.555,5.555,0,1,1,5.56-5.56A5.56731,5.56731,0,0,1,18.07,17.29Z"/></svg>