<svg id="Layer_1" data-name="Layer 1" xmlns="http://www.w3.org/2000/svg" xmlns:xlink="http://www.w3.org/1999/xlink" viewBox="0 0 404.19 120"><defs><style>.cls-1{fill:none;}.cls-2{fill:#29235c;}.cls-3{fill:url(#linear-gradient);}.cls-4{clip-path:url(#clip-path);}.cls-5{fill:#29235d;}.cls-6{fill:#29245e;}.cls-7{fill:#2a245f;}.cls-8{fill:#2a2560;}.cls-9{fill:#2a2561;}.cls-10{fill:#2a2662;}.cls-11{fill:#2a2663;}.cls-12{fill:#2b2764;}.cls-13{fill:#2b2765;}.cls-14{fill:#2b2866;}.cls-15{fill:#2b2867;}.cls-16{fill:#2b2968;}.cls-17{fill:#2b2969;}.cls-18{fill:#2c2a6a;}.cls-19{fill:#2c2a6b;}.cls-20{fill:#2c2b6c;}.cls-21{fill:#2c2b6d;}.cls-22{fill:#2c2c6e;}.cls-23{fill:#2d2c6f;}.cls-24{fill:#2d2d70;}.cls-25{fill:#2d2d71;}.cls-26{fill:#2d2e72;}.cls-27{fill:#2d2e73;}.cls-28{fill:#2e2e74;}.cls-29{fill:#2e2f75;}.cls-30{fill:#2e2f76;}.cls-31{fill:#2e3077;}.cls-32{fill:#2e3078;}.cls-33{fill:#2e3179;}.cls-34{fill:#2f317a;}.cls-35{fill:#2f327b;}.cls-36{fill:#2f327c;}.cls-37{fill:#2f337d;}.cls-38{fill:#2f337e;}.cls-39{fill:#30347f;}.cls-40{fill:#303480;}.cls-41{fill:#303581;}.cls-42{fill:#303582;}.cls-43{fill:#303683;}.cls-44{fill:#313684;}.cls-45{fill:#313785;}.cls-46{fill:#313786;}.cls-47{fill:#313887;}.cls-48{fill:#313888;}.cls-49{fill:#323889;}.cls-50{fill:#32398a;}.cls-51{fill:#32398b;}.cls-52{fill:#323a8c;}.cls-53{fill:#323a8d;}.cls-54{fill:#323b8e;}.cls-55{fill:#333b8f;}.cls-56{fill:#333c90;}.cls-57{fill:#333c91;}.cls-58{fill:#333d92;}.cls-59{fill:#333d93;}.cls-60{fill:#343e95;}.cls-61{fill:#343e96;}.cls-62{fill:#343f97;}.cls-63{fill:#343f98;}.cls-64{fill:#344099;}.cls-65{fill:#35409a;}.cls-66{fill:#35419b;}.cls-67{fill:#35419c;}.cls-68{fill:#35429d;}.cls-69{fill:#35429e;}.cls-70{fill:#35439f;}.cls-71{fill:#3643a0;}.cls-72{fill:#3643a1;}.cls-73{fill:#3644a2;}.cls-74{fill:#3644a3;}.cls-75{fill:#3645a4;}.cls-76{fill:#3745a5;}.cls-77{fill:#3746a6;}.cls-78{fill:#3746a7;}.cls-79{fill:#3747a8;}.cls-80{fill:#3747a9;}.cls-81{fill:#3848aa;}.cls-82{fill:#3848ab;}.cls-83{fill:#3849ac;}.cls-84{fill:#3849ad;}.cls-85{fill:#384aae;}.cls-86{fill:#394aaf;}.cls-87{fill:#394bb0;}.cls-88{fill:#394bb1;}.cls-89{fill:#394cb2;}.cls-90{fill:#394cb3;}.cls-91{fill:#394db4;}.cls-92{fill:#3a4db5;}.cls-93{fill:#3a4db6;}.cls-94{fill:#3a4eb7;}.cls-95{fill:#3a4eb8;}.cls-96{fill:#3a4fb9;}.cls-97{fill:#3b4fba;}.cls-98{fill:#3b50bb;}.cls-99{fill:#3b50bc;}.cls-100{fill:#3b51bd;}.cls-101{fill:#3b51be;}.cls-102{fill:#3c52bf;}.cls-103{fill:#3c52c0;}.cls-104{fill:#3c53c1;}.cls-105{fill:#3c53c2;}.cls-106{fill:#3c54c3;}.cls-107{fill:#3c54c4;}.cls-108{fill:#3d55c5;}.cls-109{fill:#3d55c6;}.cls-110{fill:#3d56c7;}.cls-111{fill:#3d56c8;}.cls-112{fill:#3d57c9;}.cls-113{fill:#3e57ca;}.cls-114{fill:#3e58cb;}.cls-115{fill:#3e58cc;}.cls-116{fill:url(#linear-gradient-2);}</style><linearGradient id="linear-gradient" x1="8.48" y1="64.65" x2="88.6" y2="64.65" gradientUnits="userSpaceOnUse"><stop offset="0" stop-color="#29235c"/><stop offset="1" stop-color="#3e58cc"/></linearGradient><clipPath id="clip-path"><path class="cls-1" d="M49,3.67A45.83,45.83,0,0,0,19.41,84.53L20.7,82a42.95,42.95,0,1,1,11.68,7.29l-1.25,2.5A45.86,45.86,0,1,0,49,3.67Z"/></clipPath><linearGradient id="linear-gradient-2" x1="2.45" y1="49.53" x2="95.56" y2="49.53" xlink:href="#linear-gradient"/></defs><path class="cls-2" d="M107.35,13.37h40.46q9.6,0,9.6,9.6,0,9.26-9.6,9.26H137V95.31q0,10.06-9.25,10.06-9.6,0-9.6-10.06V32.23H107.35q-9.82,0-9.83-9.26Q97.52,13.37,107.35,13.37Z"/><path class="cls-2" d="M171.24,13.26q9.6,0,9.6,9.6V95.77q0,9.6-9.6,9.6t-9.49-9.6V22.86Q161.75,13.26,171.24,13.26Z"/><path class="cls-2" d="M200.49,13.49h33.26q9.48,0,9.49,9.48t-9.49,9.49H209.41v16h19.08q9.38,0,9.37,9.48t-9.37,9.37H209.41V86.4h25.14q10.29,0,10.29,9.49t-10.29,9.48H200.49c-4.26,0-7-.66-8.17-2s-1.77-4.13-1.77-8.4V23.77Q190.55,13.48,200.49,13.49Z"/><path class="cls-2" d="M315,13.37q9.93,0,9.94,10.17V68.69A49.41,49.41,0,0,1,322,86.51a27.74,27.74,0,0,1-8.18,11.83,35.59,35.59,0,0,1-11.65,6.35,46.24,46.24,0,0,1-14.17,2,45.64,45.64,0,0,1-14.12-2,33.17,33.17,0,0,1-11.37-6.35,27.46,27.46,0,0,1-7.77-11.83A52.11,52.11,0,0,1,252,68.69V23.54q0-10.17,9.82-10.17t9.83,10.17V67.89q0,18.85,17.49,18.85,7.54,0,11.71-4.23t4.17-14.62V23.54Q305.06,13.37,315,13.37Z"/><path class="cls-2" d="M345.86,13.37h24.8q13.6,0,22.34,8.46t8.75,21.83A28.51,28.51,0,0,1,393,65q-8.73,8.52-21.77,8.52H354.89V95.77q0,9.6-9.49,9.6t-9.48-9.6V23.2Q335.92,13.37,345.86,13.37Zm9,18.86v22.4h16a11.74,11.74,0,0,0,8.4-3,10.66,10.66,0,0,0,3.14-8.12q0-5.37-3.43-8.34t-9.94-3Z"/><polygon class="cls-2" points="5.67 58.06 5.6 58.11 5.6 57.88 5.67 57.94 5.73 57.88 5.73 57.99 5.73 58 5.73 58 5.73 58.11 5.67 58.06"/><polygon class="cls-2" points="5.73 58 5.73 58 5.73 58.11 5.67 58.06 5.6 58.11 5.6 57.88 5.67 57.94 5.73 57.88 5.73 57.99 5.73 58"/><polygon class="cls-2" points="5.73 57.88 5.73 58.11 5.67 58.06 5.6 58 5.67 57.94 5.73 57.88"/><polygon class="cls-2" points="5.73 58 5.73 58 5.67 58.06 5.6 58.11 5.6 57.88 5.73 57.99 5.73 58"/><path class="cls-3" d="M88.6,49.49A39.71,39.71,0,0,1,31.22,85l-.41.81-.13-.07-1.25,2.47-1.25,2.49-2.76,5.5-.14.27.14.07L15,117.22l-6.55-3.29L19,93.08,22.05,87v0l1.26-2.48L25,81.14A39.69,39.69,0,0,1,35.68,12.07h0L45.3,25.89a1.58,1.58,0,0,1,.21,1.37L34.15,63a1.51,1.51,0,0,0,.43,1.62l14.12,13,.4.37.39-.37,14.11-13A1.53,1.53,0,0,0,64,63L52.67,27.26a1.55,1.55,0,0,1,.2-1.37l9.55-13.72c1,.35,1.9.73,2.81,1.14l.2.1A39.68,39.68,0,0,1,88.6,49.49Z"/><g class="cls-4"><rect class="cls-2" x="3.14" y="3.67" width="0.82" height="91.72"/><rect class="cls-5" x="3.96" y="3.67" width="0.82" height="91.72"/><rect class="cls-6" x="4.78" y="3.67" width="0.82" height="91.72"/><rect class="cls-7" x="5.6" y="3.67" width="0.82" height="91.72"/><rect class="cls-8" x="6.42" y="3.67" width="0.82" height="91.72"/><rect class="cls-9" x="7.24" y="3.67" width="0.82" height="91.72"/><rect class="cls-10" x="8.05" y="3.67" width="0.82" height="91.72"/><rect class="cls-11" x="8.87" y="3.67" width="0.82" height="91.72"/><rect class="cls-12" x="9.69" y="3.67" width="0.82" height="91.72"/><rect class="cls-13" x="10.51" y="3.67" width="0.82" height="91.72"/><rect class="cls-14" x="11.33" y="3.67" width="0.82" height="91.72"/><rect class="cls-15" x="12.15" y="3.67" width="0.82" height="91.72"/><rect class="cls-16" x="12.97" y="3.67" width="0.82" height="91.72"/><rect class="cls-17" x="13.79" y="3.67" width="0.82" height="91.72"/><rect class="cls-18" x="14.61" y="3.67" width="0.82" height="91.72"/><rect class="cls-19" x="15.43" y="3.67" width="0.82" height="91.72"/><rect class="cls-20" x="16.24" y="3.67" width="0.82" height="91.72"/><rect class="cls-21" x="17.06" y="3.67" width="0.82" height="91.72"/><rect class="cls-22" x="17.88" y="3.67" width="0.82" height="91.72"/><rect class="cls-23" x="18.7" y="3.67" width="0.82" height="91.72"/><rect class="cls-24" x="19.52" y="3.67" width="0.82" height="91.72"/><rect class="cls-25" x="20.34" y="3.67" width="0.82" height="91.72"/><rect class="cls-26" x="21.16" y="3.67" width="0.82" height="91.72"/><rect class="cls-27" x="21.98" y="3.67" width="0.82" height="91.72"/><rect class="cls-28" x="22.8" y="3.67" width="0.82" height="91.72"/><rect class="cls-29" x="23.61" y="3.67" width="0.82" height="91.72"/><rect class="cls-30" x="24.43" y="3.67" width="0.82" height="91.72"/><rect class="cls-31" x="25.25" y="3.67" width="0.82" height="91.72"/><rect class="cls-32" x="26.07" y="3.67" width="0.82" height="91.72"/><rect class="cls-33" x="26.89" y="3.67" width="0.82" height="91.72"/><rect class="cls-34" x="27.71" y="3.67" width="0.82" height="91.72"/><rect class="cls-35" x="28.53" y="3.67" width="0.82" height="91.72"/><rect class="cls-36" x="29.35" y="3.67" width="0.82" height="91.72"/><rect class="cls-37" x="30.17" y="3.67" width="0.82" height="91.72"/><rect class="cls-38" x="30.99" y="3.67" width="0.82" height="91.72"/><rect class="cls-39" x="31.8" y="3.67" width="0.82" height="91.72"/><rect class="cls-40" x="32.62" y="3.67" width="0.82" height="91.72"/><rect class="cls-41" x="33.44" y="3.67" width="0.82" height="91.72"/><rect class="cls-42" x="34.26" y="3.67" width="0.82" height="91.72"/><rect class="cls-43" x="35.08" y="3.67" width="0.82" height="91.72"/><rect class="cls-44" x="35.9" y="3.67" width="0.82" height="91.72"/><rect class="cls-45" x="36.72" y="3.67" width="0.82" height="91.72"/><rect class="cls-46" x="37.54" y="3.67" width="0.82" height="91.72"/><rect class="cls-47" x="38.36" y="3.67" width="0.82" height="91.72"/><rect class="cls-48" x="39.17" y="3.67" width="0.82" height="91.72"/><rect class="cls-49" x="39.99" y="3.67" width="0.82" height="91.72"/><rect class="cls-50" x="40.81" y="3.67" width="0.82" height="91.72"/><rect class="cls-51" x="41.63" y="3.67" width="0.82" height="91.72"/><rect class="cls-52" x="42.45" y="3.67" width="0.82" height="91.72"/><rect class="cls-53" x="43.27" y="3.67" width="0.82" height="91.72"/><rect class="cls-54" x="44.09" y="3.67" width="0.82" height="91.72"/><rect class="cls-55" x="44.91" y="3.67" width="0.82" height="91.72"/><rect class="cls-56" x="45.73" y="3.67" width="0.82" height="91.72"/><rect class="cls-57" x="46.55" y="3.67" width="0.82" height="91.72"/><rect class="cls-58" x="47.36" y="3.67" width="0.82" height="91.72"/><rect class="cls-59" x="48.18" y="3.67" width="0.82" height="91.72"/><rect class="cls-60" x="49" y="3.67" width="0.82" height="91.72"/><rect class="cls-61" x="49.82" y="3.67" width="0.82" height="91.72"/><rect class="cls-62" x="50.64" y="3.67" width="0.82" height="91.72"/><rect class="cls-63" x="51.46" y="3.67" width="0.82" height="91.72"/><rect class="cls-64" x="52.28" y="3.67" width="0.82" height="91.72"/><rect class="cls-65" x="53.1" y="3.67" width="0.82" height="91.72"/><rect class="cls-66" x="53.92" y="3.67" width="0.82" height="91.72"/><rect class="cls-67" x="54.73" y="3.67" width="0.82" height="91.72"/><rect class="cls-68" x="55.55" y="3.67" width="0.82" height="91.72"/><rect class="cls-69" x="56.37" y="3.67" width="0.82" height="91.72"/><rect class="cls-70" x="57.19" y="3.67" width="0.82" height="91.72"/><rect class="cls-71" x="58.01" y="3.67" width="0.82" height="91.72"/><rect class="cls-72" x="58.83" y="3.67" width="0.82" height="91.72"/><rect class="cls-73" x="59.65" y="3.67" width="0.82" height="91.72"/><rect class="cls-74" x="60.47" y="3.67" width="0.82" height="91.72"/><rect class="cls-75" x="61.29" y="3.67" width="0.82" height="91.72"/><rect class="cls-76" x="62.11" y="3.67" width="0.82" height="91.72"/><rect class="cls-77" x="62.92" y="3.67" width="0.82" height="91.72"/><rect class="cls-78" x="63.74" y="3.67" width="0.82" height="91.72"/><rect class="cls-79" x="64.56" y="3.67" width="0.82" height="91.72"/><rect class="cls-80" x="65.38" y="3.67" width="0.82" height="91.72"/><rect class="cls-81" x="66.2" y="3.67" width="0.82" height="91.72"/><rect class="cls-82" x="67.02" y="3.67" width="0.82" height="91.72"/><rect class="cls-83" x="67.84" y="3.67" width="0.82" height="91.72"/><rect class="cls-84" x="68.66" y="3.67" width="0.82" height="91.72"/><rect class="cls-85" x="69.48" y="3.67" width="0.82" height="91.72"/><rect class="cls-86" x="70.29" y="3.67" width="0.82" height="91.72"/><rect class="cls-87" x="71.11" y="3.67" width="0.82" height="91.72"/><rect class="cls-88" x="71.93" y="3.67" width="0.82" height="91.72"/><rect class="cls-89" x="72.75" y="3.67" width="0.82" height="91.72"/><rect class="cls-90" x="73.57" y="3.67" width="0.82" height="91.72"/><rect class="cls-91" x="74.39" y="3.67" width="0.82" height="91.72"/><rect class="cls-92" x="75.21" y="3.67" width="0.82" height="91.72"/><rect class="cls-93" x="76.03" y="3.67" width="0.82" height="91.72"/><rect class="cls-94" x="76.85" y="3.67" width="0.82" height="91.72"/><rect class="cls-95" x="77.67" y="3.67" width="0.82" height="91.72"/><rect class="cls-96" x="78.48" y="3.67" width="0.82" height="91.72"/><rect class="cls-97" x="79.3" y="3.67" width="0.82" height="91.72"/><rect class="cls-98" x="80.12" y="3.67" width="0.82" height="91.72"/><rect class="cls-99" x="80.94" y="3.67" width="0.82" height="91.72"/><rect class="cls-100" x="81.76" y="3.67" width="0.82" height="91.72"/><rect class="cls-101" x="82.58" y="3.67" width="0.82" height="91.72"/><rect class="cls-102" x="83.4" y="3.67" width="0.82" height="91.72"/><rect class="cls-103" x="84.22" y="3.67" width="0.82" height="91.72"/><rect class="cls-104" x="85.04" y="3.67" width="0.82" height="91.72"/><rect class="cls-105" x="85.85" y="3.67" width="0.82" height="91.72"/><rect class="cls-106" x="86.67" y="3.67" width="0.82" height="91.72"/><rect class="cls-107" x="87.49" y="3.67" width="0.82" height="91.72"/><rect class="cls-108" x="88.31" y="3.67" width="0.82" height="91.72"/><rect class="cls-109" x="89.13" y="3.67" width="0.82" height="91.72"/><rect class="cls-110" x="89.95" y="3.67" width="0.82" height="91.72"/><rect class="cls-111" x="90.77" y="3.67" width="0.82" height="91.72"/><rect class="cls-112" x="91.59" y="3.67" width="0.82" height="91.72"/><rect class="cls-113" x="92.41" y="3.67" width="0.82" height="91.72"/><rect class="cls-114" x="93.23" y="3.67" width="0.82" height="91.72"/><rect class="cls-115" x="94.04" y="3.67" width="0.82" height="91.72"/></g><path class="cls-116" d="M95.56,49.53A46.57,46.57,0,0,1,30.85,92.4l-.68-.29,1.88-3.74.6.25A42.38,42.38,0,1,0,49,7.15a42.36,42.36,0,0,0-27.85,74.3l.4.35-1.92,3.84L19,85.06a46.55,46.55,0,1,1,76.6-35.53Z"/><rect class="cls-2" x="11.03" y="93.06" width="11.03" height="25.74" rx="2.47" transform="translate(51.32 4.51) rotate(27.8)"/></svg>