<svg id="Layer_1" data-name="Layer 1" xmlns="http://www.w3.org/2000/svg" viewBox="0 0 36 36"><defs><style>.cls-1{fill:#3e58cc;}</style></defs><path class="cls-1" d="M33.33,24.45a.59569.59569,0,0,1-.59-.61A14.81157,14.81157,0,0,0,20.61,9.33,1.01914,1.01914,0,0,0,20.84,8.7c0-.87005-1.25-1.54-2.84-1.54s-2.84.67-2.84,1.54a1.01914,1.01914,0,0,0,.23.62995A14.81418,14.81418,0,0,0,3.26,23.85a.59331.59331,0,0,1-.59.6H1.75v1.37H3.06a3.27706,3.27706,0,0,0,2.21,2.85,3.16334,3.16334,0,0,0,1.05.17H29.68a3.10561,3.10561,0,0,0,1.04-.17,3.26261,3.26261,0,0,0,1.27-.78,3.21819,3.21819,0,0,0,.95-2.07h1.31V24.45ZM18,10.9A12.95487,12.95487,0,0,1,30.94,23.84c0,.2-.01.41-.02.61H5.08c-.01-.2-.02-.41-.02-.61A12.95487,12.95487,0,0,1,18,10.9ZM29.68,27.48H6.32a1.85582,1.85582,0,0,1-.61-.1,1.95113,1.95113,0,0,1-1.17-1.13H31.46a1.83519,1.83519,0,0,1-.43.67,1.996,1.996,0,0,1-.74005.46A1.85582,1.85582,0,0,1,29.68,27.48Z"/></svg>