<svg id="Layer_1" data-name="Layer 1" xmlns="http://www.w3.org/2000/svg" viewBox="0 0 36 36"><rect x="1.5" y="10.76758" width="33" height="1.10156" rx="0.11816"/><path d="M34,11.26782v.10144H2v-.10144H34m.382-1H1.618a.618.618,0,0,0-.618.618v.86548a.618.618,0,0,0,.618.618H34.382a.618.618,0,0,0,.618-.618V10.8858a.618.618,0,0,0-.618-.618Z"/><rect x="1.5" y="17.44922" width="33" height="1.10156" rx="0.11816"/><path d="M34,17.94928v.10144H2v-.10144H34m.382-1H1.618a.618.618,0,0,0-.618.618v.86548a.618.618,0,0,0,.618.618H34.382a.618.618,0,0,0,.618-.618v-.86548a.618.618,0,0,0-.618-.618Z"/><rect x="1.5" y="24.13086" width="21.81934" height="1.10156" rx="0.11816"/><path d="M22.81934,24.63074v.10144H2v-.10144H22.81934m.382-1H1.618a.618.618,0,0,0-.618.618v.86548a.618.618,0,0,0,.618.618H23.20135a.618.618,0,0,0,.618-.618v-.86548a.618.618,0,0,0-.618-.618Z"/></svg>