<?xml version="1.0" encoding="iso-8859-1"?>
<!-- Generator: Adobe Illustrator 19.0.0, SVG Export Plug-In . SVG Version: 6.00 Build 0)  -->
<svg version="1.1" id="Layer_1" xmlns="http://www.w3.org/2000/svg" xmlns:xlink="http://www.w3.org/1999/xlink" x="0px" y="0px"
	 viewBox="0 0 512.001 512.001" style="enable-background:new 0 0 512.001 512.001;" xml:space="preserve">
<g>
	<g>
		<path d="M385.773,0H126.229c-4.893,0-8.859,3.966-8.859,8.859v419.847c0,3.174,1.698,6.105,4.452,7.685l129.772,74.437
			c1.364,0.783,2.885,1.174,4.407,1.174c1.521,0,3.043-0.392,4.407-1.174l129.772-74.437c2.753-1.579,4.452-4.511,4.452-7.685V8.859
			C394.631,3.966,390.665,0,385.773,0z M376.914,423.575L256.001,492.93l-120.913-69.355V17.717h241.827V423.575z"/>
	</g>
</g>
<g>
	<g>
		<path d="M256.001,417.217c-15.141,0-27.46,12.319-27.46,27.462c0,15.141,12.319,27.46,27.46,27.46s27.46-12.319,27.46-27.46
			C283.461,429.536,271.142,417.217,256.001,417.217z M256.001,454.422c-5.373,0-9.743-4.371-9.743-9.743
			c0-5.373,4.37-9.744,9.743-9.744c5.373,0,9.743,4.371,9.743,9.744C265.744,450.05,261.374,454.422,256.001,454.422z"/>
	</g>
</g>
<g>
	<g>
		<path d="M357.886,151.144c-1.042-3.207-3.814-5.544-7.152-6.029l-59.972-8.714l-26.82-54.344
			c-1.493-3.024-4.572-4.938-7.944-4.938c-3.372,0-6.451,1.915-7.944,4.938l-26.82,54.344l-59.972,8.714
			c-3.337,0.484-6.11,2.822-7.152,6.029s-0.172,6.728,2.241,9.081l43.401,42.301l-10.244,59.732
			c-0.57,3.323,0.796,6.682,3.523,8.664c2.728,1.982,6.343,2.244,9.329,0.674l53.642-28.201l53.64,28.201
			c1.297,0.682,2.712,1.017,4.121,1.017c1.837,0,3.665-0.57,5.208-1.691c2.728-1.982,4.095-5.341,3.523-8.664l-10.244-59.732
			l43.398-42.301C358.059,157.87,358.928,154.35,357.886,151.144z M296.548,193.091c-2.088,2.035-3.04,4.968-2.547,7.842
			l7.997,46.629l-41.875-22.015c-2.582-1.356-5.664-1.356-8.244,0l-41.876,22.016l7.997-46.63c0.494-2.874-0.459-5.806-2.547-7.842
			l-33.879-33.024l46.817-6.803c2.885-0.419,5.38-2.231,6.67-4.846l20.938-42.424l20.938,42.424c1.291,2.614,3.784,4.427,6.67,4.846
			l46.819,6.803L296.548,193.091z"/>
	</g>
</g>
<g>
</g>
<g>
</g>
<g>
</g>
<g>
</g>
<g>
</g>
<g>
</g>
<g>
</g>
<g>
</g>
<g>
</g>
<g>
</g>
<g>
</g>
<g>
</g>
<g>
</g>
<g>
</g>
<g>
</g>
</svg>
