<svg id="Layer_1" data-name="Layer 1" xmlns="http://www.w3.org/2000/svg" viewBox="0 0 36 36"><path d="M29.05863,26.61893a4.13939,4.13939,0,0,1-2.08145-3.5916V12.73105a9.1223,9.1223,0,0,0-7.99362-9.1074V2.61646a.98353.98353,0,0,0-1.96706,0V3.62308a8.97657,8.97657,0,0,0-7.99368,8.9212v10.483a4.13939,4.13939,0,0,1-2.08145,3.5916A2.82668,2.82668,0,0,0,5.52,29.07154a.77037.77037,0,0,0,.77038.77032h23.4193a.77032.77032,0,0,0,.77032-.77032A2.8267,2.8267,0,0,0,29.05863,26.61893Z"/><path d="M18,34.367a3.40714,3.40714,0,0,0,3.38534-3.029h-6.7706A3.40712,3.40712,0,0,0,18,34.367Z"/></svg>