<?xml version="1.0" encoding="iso-8859-1"?>
<!-- Generator: Adobe Illustrator 16.0.0, SVG Export Plug-In . SVG Version: 6.00 Build 0)  -->
<!DOCTYPE svg PUBLIC "-//W3C//DTD SVG 1.1//EN" "http://www.w3.org/Graphics/SVG/1.1/DTD/svg11.dtd">
<svg version="1.1" id="Capa_1" xmlns="http://www.w3.org/2000/svg" xmlns:xlink="http://www.w3.org/1999/xlink" x="0px" y="0px"
	 width="448.801px" height="448.801px" viewBox="0 0 448.801 448.801" style="enable-background:new 0 0 448.801 448.801;"
	 xml:space="preserve">
<g>
	<path d="M408,91.8H258.4V64.6c0-18.768-15.232-34-34-34s-34,15.232-34,34v27.2H40.8C18.265,91.8,0,110.065,0,132.6v244.8
		c0,22.535,18.265,40.801,40.8,40.801H408c22.535,0,40.801-18.266,40.801-40.801V132.6C448.801,110.065,430.535,91.8,408,91.8z
		 M224.4,51c7.514,0,13.6,6.086,13.6,13.6c0,7.514-6.086,13.6-13.6,13.6s-13.6-6.086-13.6-13.6C210.8,57.086,216.886,51,224.4,51z
		 M136,149.6c31.389,0,56.828,25.446,56.828,56.828c0,31.382-25.439,56.828-56.828,56.828s-56.828-25.445-56.828-56.828
		C79.172,175.046,104.611,149.6,136,149.6z M224.4,370.6H47.6v-25.255c0-34.877,28.268-63.145,63.145-63.145h50.517
		c34.871,0,63.138,28.268,63.138,63.145V370.6z M401.199,241.4H272V221h129.199V241.4z M408,193.8H238v-20.4h170V193.8z"/>
</g>
<g>
</g>
<g>
</g>
<g>
</g>
<g>
</g>
<g>
</g>
<g>
</g>
<g>
</g>
<g>
</g>
<g>
</g>
<g>
</g>
<g>
</g>
<g>
</g>
<g>
</g>
<g>
</g>
<g>
</g>
</svg>
