<?xml version="1.0" encoding="iso-8859-1"?>
<!-- Generator: Adobe Illustrator 16.0.0, SVG Export Plug-In . SVG Version: 6.00 Build 0)  -->
<!DOCTYPE svg PUBLIC "-//W3C//DTD SVG 1.1//EN" "http://www.w3.org/Graphics/SVG/1.1/DTD/svg11.dtd">
<svg version="1.1" id="Capa_1" xmlns="http://www.w3.org/2000/svg" xmlns:xlink="http://www.w3.org/1999/xlink" x="0px" y="0px"
	 width="183.405px" height="183.405px" viewBox="0 0 183.405 183.405" style="enable-background:new 0 0 183.405 183.405;"
	 xml:space="preserve">
<g>
	<g>
		<path d="M160.766,0H64.054c-5.307,0-9.965,2.755-12.662,6.902h8.915c1.154-0.524,2.402-0.859,3.748-0.859h96.711
			c4.999,0,9.061,4.064,9.061,9.064v125.577c0,4.604-3.495,8.269-7.946,8.841c-0.292,2.29-1.054,4.422-2.259,6.26h1.145
			c8.336,0,15.113-6.771,15.113-15.101V15.101C175.879,6.777,169.102,0,160.766,0z"/>
		<path d="M140.057,13.804H43.348c-5.307,0-9.965,2.759-12.666,6.905h8.918c1.154-0.523,2.399-0.861,3.748-0.861h96.708
			c5.011,0,9.072,4.064,9.072,9.066v125.579c0,4.604-3.501,8.258-7.946,8.83c-0.292,2.289-1.06,4.42-2.259,6.271h1.139
			c8.342,0,15.125-6.771,15.125-15.113V28.914C155.176,20.581,148.398,13.804,140.057,13.804z"/>
		<path d="M119.347,27.611H22.639c-8.336,0-15.113,6.771-15.113,15.107v125.58c0,8.33,6.777,15.107,15.113,15.107h96.708
			c8.343,0,15.126-6.771,15.126-15.107V42.718C134.473,34.388,127.689,27.611,119.347,27.611z M128.42,168.298
			c0,4.993-4.067,9.066-9.073,9.066H22.639c-5.005,0-9.07-4.067-9.07-9.066V42.718c0-4.997,4.064-9.067,9.07-9.067h96.708
			c5.006,0,9.073,4.07,9.073,9.067V168.298z"/>
		<path d="M80.236,107.747c6.777-4.549,11.447-13.548,11.447-21.644c0-11.43-9.252-20.7-20.688-20.7
			c-11.43,0-20.685,9.271-20.685,20.7c0,8.096,4.67,17.095,11.429,21.644c-16.185,4.11-28.202,18.194-28.202,28.625
			c0,12.324,74.933,12.324,74.933,0C108.46,125.941,96.452,111.857,80.236,107.747z M70.996,145.604l-10.507-10.485l8.835-21.361
			H69.23l-3.428-3.945c1.668,0.597,3.386,0.962,5.188,0.962c1.806,0,3.517-0.359,5.179-0.943l-3.435,3.921h-0.076l8.842,21.361
			L70.996,145.604z"/>
	</g>
</g>
<g>
</g>
<g>
</g>
<g>
</g>
<g>
</g>
<g>
</g>
<g>
</g>
<g>
</g>
<g>
</g>
<g>
</g>
<g>
</g>
<g>
</g>
<g>
</g>
<g>
</g>
<g>
</g>
<g>
</g>
</svg>
