<svg id="Layer_1" data-name="Layer 1" xmlns="http://www.w3.org/2000/svg" viewBox="0 0 36 36"><path d="M18,15.33155a7.31289,7.31289,0,1,1,7.31288-7.31288A7.32117,7.32117,0,0,1,18,15.33155Zm0-12.957a5.64417,5.64417,0,1,0,5.64417,5.64417A5.65056,5.65056,0,0,0,18,2.3745Z"/><path d="M32.22432,35.29422H3.77568A1.77568,1.77568,0,0,1,2,33.51854V32.25109a14.06681,14.06681,0,0,1,4.01208-9.88836,13.84039,13.84039,0,0,1,9.91773-4.14827h4.03356a14.0668,14.0668,0,0,1,9.88837,4.01209A13.84041,13.84041,0,0,1,34,32.14429v1.37425A1.77568,1.77568,0,0,1,32.22432,35.29422ZM5.14991,33.92H30.85009a1.77567,1.77567,0,0,0,1.77568-1.77567v0a12.55561,12.55561,0,0,0-12.5556-12.5556H15.92981A12.55559,12.55559,0,0,0,3.37423,32.14427v0A1.77567,1.77567,0,0,0,5.14991,33.92Z"/></svg>