<svg id="Layer_1" data-name="Layer 1" xmlns="http://www.w3.org/2000/svg" viewBox="0 0 36 36"><path d="M18,16.33222a4.57056,4.57056,0,1,1,4.57055-4.57055A4.57573,4.57573,0,0,1,18,16.33222Zm0-8.09816a3.52761,3.52761,0,1,0,3.52761,3.52761A3.53161,3.53161,0,0,0,18,8.23406Z"/><path d="M26.8902,28.80889H9.1098A1.1098,1.1098,0,0,1,8,27.69909v-.79216a8.79172,8.79172,0,0,1,2.50755-6.18022A8.65021,8.65021,0,0,1,16.70613,18.134h2.521a8.79171,8.79171,0,0,1,6.18023,2.50756A8.65024,8.65024,0,0,1,28,26.84018v.85891A1.1098,1.1098,0,0,1,26.8902,28.80889ZM9.96869,27.95H26.03131a1.10979,1.10979,0,0,0,1.10979-1.1098v0a7.84725,7.84725,0,0,0-7.84724-7.84725H16.70613A7.84723,7.84723,0,0,0,8.8589,26.84017v0A1.10979,1.10979,0,0,0,9.96869,27.95Z"/></svg>