<!-- Uploaded to: SVG Repo, www.svgrepo.com, Transformed by: SVG Repo Mixer Tools -->
<svg width="800px" height="800px" viewBox="0 0 64 64" xmlns="http://www.w3.org/2000/svg" stroke-width="3" stroke="#000000" fill="none"><path d="M49.19,57.34H14.81L16,35.91A15.46,15.46,0,0,1,31.44,21.3h1.83A14.71,14.71,0,0,1,48,35.2Z"/><path d="M27.38,21.84,19.72,7.39a.5.5,0,0,1,.52-.73l4.65.77a46,46,0,0,0,14.76.05l5.11-.81a.5.5,0,0,1,.51.75L36.85,21.53"/><line x1="28.23" y1="13.15" x2="30.73" y2="21.3" stroke-linecap="round"/><line x1="35.14" y1="14.79" x2="33.79" y2="21.31" stroke-linecap="round"/><path d="M38.14,34.05a5.8,5.8,0,0,0-5.45-3.51c-4.9,0-5.09,3.51-5.09,3.51s-.73,4.33,5.27,4.79c6.25.48,5.27,4.79,5.27,4.79s-.64,3.75-5.27,4S26.8,43,26.8,43"/><line x1="32.69" y1="27.43" x2="32.69" y2="51.21"/></svg>