<svg id="Layer_1" data-name="Layer 1" xmlns="http://www.w3.org/2000/svg" viewBox="0 0 36 36"><path d="M33.26562,34.67676a1.39683,1.39683,0,0,1-.97753-.39063l-6.9668-6.96777-.26172.207a14.66032,14.66032,0,1,1,5.63086-11.53125A14.37806,14.37806,0,0,1,27.459,25.125l-.21191.26172,6.97363,6.97461a1.35215,1.35215,0,0,1,0,1.92871A1.33518,1.33518,0,0,1,33.26562,34.67676ZM16.0332,3.47363A12.51026,12.51026,0,1,0,28.55371,15.99414,12.5241,12.5241,0,0,0,16.0332,3.47363Z"/><path d="M16.03271,1.69006a14.30961,14.30961,0,0,1,14.28266,14.3042,14.0036,14.0036,0,0,1-3.14771,8.89453l-.42419.52472.47711.47711,6.73584,6.73566a.98552.98552,0,0,1,.29358.6886.99731.99731,0,0,1-.29352.71.96735.96735,0,0,1-.69122.27753,1.01581,1.01581,0,0,1-.70728-.27753l-6.7359-6.7359-.47174-.47174-.5235.41351A14.28391,14.28391,0,1,1,16.03271,1.69006m0,27.17865A12.88519,12.88519,0,1,0,3.15814,15.99426,12.8998,12.8998,0,0,0,16.03271,28.86871m0-27.92865a15.04342,15.04342,0,1,0,9.259,26.87921l6.7359,6.73591a1.77629,1.77629,0,0,0,1.23761.49719,1.7207,1.7207,0,0,0,1.22156-.49719,1.72956,1.72956,0,0,0,0-2.45917l-6.7359-6.73572a14.83241,14.83241,0,0,0,3.31445-9.366A15.03068,15.03068,0,0,0,16.03271.94006Zm0,27.17865A12.13519,12.13519,0,1,1,28.17865,15.99426,12.12852,12.12852,0,0,1,16.03271,28.11871Z"/></svg>