<svg id="Layer_1" data-name="Layer 1" xmlns="http://www.w3.org/2000/svg" xmlns:xlink="http://www.w3.org/1999/xlink" viewBox="0 0 36 36"><path d="M18,35a5.91508,5.91508,0,0,1-4.42912-1.99685,3.79972,3.79972,0,0,0-3.04948-1.2628A5.90722,5.90722,0,0,1,4.25965,25.4786a3.79037,3.79037,0,0,0-1.263-3.04966,5.91041,5.91041,0,0,1,.00018-8.85806,3.79032,3.79032,0,0,0,1.2628-3.04966A5.90721,5.90721,0,0,1,10.5214,4.25965a3.79988,3.79988,0,0,0,3.04966-1.263,5.91021,5.91021,0,0,1,8.85788.00018,3.80162,3.80162,0,0,0,3.04966,1.2628,5.90747,5.90747,0,0,1,6.26175,6.26175,3.79,3.79,0,0,0,1.263,3.04966,5.91039,5.91039,0,0,1,0,8.85788,3.78925,3.78925,0,0,0-1.263,3.04966,5.90722,5.90722,0,0,1-6.26175,6.26175,3.79243,3.79243,0,0,0-3.04984,1.263A5.91392,5.91392,0,0,1,18,35Zm-7.256-5.28791a5.82929,5.82929,0,0,1,4.34153,1.952,3.88845,3.88845,0,0,0,5.82868.00018,5.83027,5.83027,0,0,1,4.68828-1.94157,3.88612,3.88612,0,0,0,4.12024-4.12024,5.8253,5.8253,0,0,1,1.94157-4.6881,3.88862,3.88862,0,0,0,0-5.82868,5.82577,5.82577,0,0,1-1.94157-4.6881,3.88637,3.88637,0,0,0-4.12024-4.12024,5.82157,5.82157,0,0,1-4.6881-1.94139,3.88847,3.88847,0,0,0-5.82886,0,5.82015,5.82015,0,0,1-4.68792,1.94139,3.88612,3.88612,0,0,0-4.12024,4.12024,5.82621,5.82621,0,0,1-1.94139,4.68792,3.88865,3.88865,0,0,0-.00018,5.82886,5.82626,5.82626,0,0,1,1.94157,4.68792,3.88589,3.88589,0,0,0,4.12024,4.12042Q10.57093,29.71191,10.744,29.71209ZM18,28.19533a10.19592,10.19592,0,1,1,9.151-14.69319,9.995,9.995,0,0,1,.50074,1.20555,10.24223,10.24223,0,0,1,.00054,6.58337l-.00054.00125a10.01852,10.01852,0,0,1-.50218,1.2086A10.26242,10.26242,0,0,1,22.49786,27.151,10.11251,10.11251,0,0,1,18,28.19533Zm0-18.369a8.167,8.167,0,0,0-2.639.43487,8.02866,8.02866,0,0,0-.96307.40023,8.23585,8.23585,0,0,0-3.73526,3.73347A8.10121,8.10121,0,0,0,9.82629,18a8.167,8.167,0,0,0,.43487,2.639,8.0662,8.0662,0,0,0,.40023.96343,8.23554,8.23554,0,0,0,3.73347,3.73472,8.04783,8.04783,0,0,0,.96791.40221,8.26169,8.26169,0,0,0,5.27607-.00054,8.01917,8.01917,0,0,0,.96325-.40023,8.23546,8.23546,0,0,0,3.73508-3.73347,8.04092,8.04092,0,0,0,.40167-.96666,8.22112,8.22112,0,0,0-.00018-5.27732,7.9966,7.9966,0,0,0-.40005-.96325,8.23546,8.23546,0,0,0-3.73347-3.73508,8.04783,8.04783,0,0,0-.96791-.40221A8.16239,8.16239,0,0,0,18,9.82629Z"/><image width="42" height="216" transform="translate(-2 3) scale(0.75)" xlink:href="photo_%D9%A2%D9%A0%D9%A2%D9%A2-%D9%A0%D9%A9-%D9%A0%D9%A6_%D9%A2%D9%A1-%D9%A3%D9%A5-%D9%A5%D9%A9.jpg"/></svg>